<?xml version="1.0" standalone="no"?>
<svg xmlns:xlink="http://www.w3.org/1999/xlink" id="wave" style="transform:rotate(180deg); transition: 0.3s" viewBox="0 0 1440 100" version="1.1" xmlns="http://www.w3.org/2000/svg"><defs><linearGradient id="sw-gradient-0" x1="0" x2="0" y1="1" y2="0"><stop stop-color="rgba(255, 249, 238, 1)" offset="0%"/><stop stop-color="rgba(255, 249, 238, 1)" offset="100%"/></linearGradient></defs><path style="transform:translate(0, 0px); opacity:1" fill="url(#sw-gradient-0)" d="M0,40L60,36.7C120,33,240,27,360,35C480,43,600,67,720,65C840,63,960,37,1080,21.7C1200,7,1320,3,1440,13.3C1560,23,1680,47,1800,56.7C1920,67,2040,63,2160,66.7C2280,70,2400,80,2520,83.3C2640,87,2760,83,2880,80C3000,77,3120,73,3240,61.7C3360,50,3480,30,3600,30C3720,30,3840,50,3960,55C4080,60,4200,50,4320,45C4440,40,4560,40,4680,41.7C4800,43,4920,47,5040,50C5160,53,5280,57,5400,56.7C5520,57,5640,53,5760,53.3C5880,53,6000,57,6120,50C6240,43,6360,27,6480,26.7C6600,27,6720,43,6840,51.7C6960,60,7080,60,7200,63.3C7320,67,7440,73,7560,75C7680,77,7800,73,7920,68.3C8040,63,8160,57,8280,48.3C8400,40,8520,30,8580,25L8640,20L8640,100L8580,100C8520,100,8400,100,8280,100C8160,100,8040,100,7920,100C7800,100,7680,100,7560,100C7440,100,7320,100,7200,100C7080,100,6960,100,6840,100C6720,100,6600,100,6480,100C6360,100,6240,100,6120,100C6000,100,5880,100,5760,100C5640,100,5520,100,5400,100C5280,100,5160,100,5040,100C4920,100,4800,100,4680,100C4560,100,4440,100,4320,100C4200,100,4080,100,3960,100C3840,100,3720,100,3600,100C3480,100,3360,100,3240,100C3120,100,3000,100,2880,100C2760,100,2640,100,2520,100C2400,100,2280,100,2160,100C2040,100,1920,100,1800,100C1680,100,1560,100,1440,100C1320,100,1200,100,1080,100C960,100,840,100,720,100C600,100,480,100,360,100C240,100,120,100,60,100L0,100Z"/></svg>